<svg width="26" height="34" viewBox="0 0 26 34" fill="none" xmlns="http://www.w3.org/2000/svg">
<path d="M25.6664 1.99941L25.6664 31.9994C25.6654 32.3031 25.5816 32.6009 25.4241 32.8605C25.2665 33.1202 25.0411 33.332 24.7721 33.4731C24.5031 33.6142 24.2008 33.6792 23.8975 33.6612C23.5943 33.6433 23.3018 33.543 23.0514 33.3711L1.38469 18.3711C0.486354 17.7494 0.486354 16.2527 1.38469 15.6294L23.0514 0.62941C23.3013 0.455785 23.594 0.353967 23.8977 0.335019C24.2014 0.31607 24.5045 0.380716 24.774 0.521933C25.0436 0.66315 25.2693 0.875536 25.4266 1.13602C25.5839 1.3965 25.6668 1.69511 25.6664 1.99941Z" fill="white"/>
</svg>
