<svg width="112" height="369" viewBox="0 0 112 369" fill="none" xmlns="http://www.w3.org/2000/svg">
<g style="mix-blend-mode:hard-light" opacity="0.2">
<path d="M60.3864 286.853C62.0435 278.145 64.8216 271.746 68.7206 267.654C72.5222 263.457 77.4447 261.359 83.4883 261.359C91.8712 261.359 98.4021 265.188 103.081 272.847C107.662 280.401 109.953 291.154 109.953 305.108V369H99.2794C98.4996 367.426 97.7198 365.695 96.9399 363.807C96.1601 361.918 95.2829 359.663 94.3081 357.04L29.6815 354.994L25.1488 369H13.4517L13.4517 303.219C13.4517 290.945 15.45 281.45 19.4465 274.736C23.443 268.021 29.0966 264.664 36.4073 264.664C41.9635 264.664 46.8373 266.605 51.0287 270.487C55.2202 274.368 58.3394 279.824 60.3864 286.853ZM105.274 321.632L91.53 336.424V302.747C90.4578 300.649 89.1419 299.18 87.5823 298.341C85.9252 297.502 83.8782 297.082 81.4413 297.082C78.1271 297.082 75.6414 297.974 73.9843 299.757C72.3272 301.541 71.4987 304.164 71.4987 307.626V324.15H53.0757L53.0757 306.052C49.9565 302.275 46.3986 300.387 42.4021 300.387C38.9904 300.387 36.4073 301.384 34.6527 303.377C32.8982 305.37 32.0209 308.36 32.0209 312.347V336.424L18.2768 321.632H105.274Z" fill="black"/>
<path d="M112 220.296C112 227.849 110.489 234.406 107.467 239.967C104.446 245.422 100.108 249.671 94.4543 252.714C88.8007 255.756 82.1236 257.277 74.423 257.277C66.3325 257.277 59.4117 255.704 53.6606 252.556C47.9095 249.304 43.5231 244.74 40.5013 238.865C37.3821 232.885 35.8225 225.751 35.8225 217.463C35.8225 210.119 36.9922 203.929 39.3316 198.893C41.671 193.753 45.0827 189.818 49.5666 187.091C53.953 184.363 59.3629 182.999 65.7963 182.999L75.1541 183.314C76.6162 191.392 77.8346 198.579 78.8094 204.873C79.7842 211.168 80.6127 216.938 81.295 222.184C81.8799 227.325 82.416 232.308 82.9034 237.134L68.1358 236.819L68.4282 212.584L63.6031 212.27C60.289 212.27 57.9495 212.899 56.5849 214.158C55.2202 215.312 54.5379 217.41 54.5379 220.453C54.5379 221.187 54.5866 221.974 54.6841 222.813C54.6841 223.548 54.7328 224.387 54.8303 225.331C57.4621 225.856 59.9965 226.276 62.4334 226.59C64.8703 226.8 67.2097 226.905 69.4517 226.905C76.275 226.905 81.3925 225.226 84.8042 221.869C88.1184 218.512 89.7755 213.319 89.7755 206.29C89.7755 200.31 88.6058 192.861 86.2663 183.943L91.8225 181.74C98.3534 186.461 103.373 192.126 106.883 198.736C110.294 205.345 112 212.532 112 220.296Z" fill="black"/>
<path d="M109.953 177.956H100.303C99.4256 177.221 98.597 176.434 97.8172 175.595C96.9399 174.756 96.1114 173.864 95.3316 172.92L28.0731 170.717L10.9661 180.946C7.74935 174.756 5.16623 168.251 3.21671 161.432C1.26719 154.508 0.19495 147.216 0 139.558H96.0627L99.2794 134.522H109.953V177.956ZM111.123 116.896L72.6684 143.02L39.0392 113.277V91.0876H42.1097L76.47 122.089L54.8303 121.145L105.42 81.6455C106.785 87.101 107.955 92.7663 108.93 98.6414C109.904 104.412 110.635 110.497 111.123 116.896ZM59.2167 113.119C58.1445 116.477 56.7311 119.729 54.9765 122.876C53.1245 125.919 50.9312 128.751 48.3969 131.374H37.577V87.6255H48.3969L59.2167 113.119Z" fill="black"/>
<path d="M111.561 21.8881C111.561 26.3994 110.245 30.6483 107.614 34.635C104.982 38.6217 100.888 41.3495 95.3316 42.8182L58.3394 40.3003C54.4404 48.1688 52.4909 57.611 52.4909 68.6269C52.4909 69.7809 52.5396 70.9874 52.6371 72.2464C52.6371 73.4004 52.6858 74.5544 52.7833 75.7085L44.4491 56.0373L68.5744 60.2863C68.6719 68.2596 67.7946 74.2921 65.9426 78.3838C63.993 82.3705 61.1175 84.3638 57.3159 84.3638C53.5144 84.3638 50.0052 82.5803 46.7885 79.0132C43.5718 75.3413 40.9887 70.5677 39.0392 64.6926C37.0896 58.7126 36.1149 52.2604 36.1149 45.3361C36.1149 38.2021 37.3333 31.7499 39.7702 25.9797C42.1097 20.2095 45.6188 15.2785 50.2977 11.1869H90.6527L88.4595 0.171051C92.846 -0.353516 96.7937 0.32843 100.303 2.21689C103.812 4.0004 106.59 6.6232 108.637 10.0853C110.587 13.5475 111.561 17.4817 111.561 21.8881ZM111.708 51.6309C111.708 61.9124 109.807 69.9907 106.005 75.8658C102.204 81.741 97.0374 84.6785 90.5065 84.6785C87.9722 84.6785 85.7302 84.1015 83.7807 82.9475C81.7337 81.6885 79.7842 79.3804 77.9321 76.0232C75.9826 72.666 73.8869 67.84 71.6449 61.5452C69.403 55.1455 66.6736 46.8574 63.4569 36.6808H77.3473L78.8094 61.3878L75.0078 51.7883C76.47 52.208 77.8346 52.5227 79.1018 52.7325C80.369 52.8374 81.5875 52.8899 82.7572 52.8899C86.0714 52.8899 88.4108 52.3129 89.7755 51.1588C91.0426 50.0048 91.6762 48.2213 91.6762 45.8083C91.6762 44.3395 91.5788 42.9756 91.3838 41.7166C91.0914 40.4577 90.7502 39.1463 90.3603 37.7824H91.53C95.3316 39.6708 98.8895 41.7691 102.204 44.0772C105.42 46.2804 108.588 48.7983 111.708 51.6309Z" fill="black"/>
</g>
</svg>
