<svg width="130" height="130" viewBox="0 0 130 130" fill="none" xmlns="http://www.w3.org/2000/svg">
<path d="M63.1519 11.751L19.8784 36.735C9.33456 42.8225 5.72198 56.3048 11.8095 66.8486L36.7934 110.122C42.8809 120.666 56.3632 124.279 66.9071 118.191L110.181 93.2071C120.724 87.1196 124.337 73.6373 118.25 63.0934L93.2655 19.8199C87.178 9.27609 73.6957 5.66351 63.1519 11.751Z" fill="#F4F2ED"/>
<path d="M51.3349 104.713L61.459 98.8681L47.2635 74.2808L26.5381 71.7839L44.4911 102.879C45.8772 105.28 48.9415 106.095 51.3349 104.713Z" fill="#4285F4"/>
<path d="M96.1701 78.8275L106.295 72.9821C108.695 71.5961 109.51 68.5317 108.128 66.1383L90.1751 35.0425L81.9746 54.2402" fill="#34A853"/>
<path d="M71.1188 35.4379L81.9741 54.2399L90.1748 35.0426L86.8343 29.2566C83.7365 23.891 75.8452 24.3683 73.415 30.0623" fill="#FBBC04"/>
<path d="M47.2637 74.2801L36.4086 55.4784L61.279 58.4743L71.1193 35.4373L81.9747 54.2393L72.1345 77.2766" fill="#EA4335"/>
<path d="M23.1973 65.9981L26.5374 71.7834L47.263 74.2806L36.4078 55.4788L30.6046 54.7794C24.4511 54.0413 20.0994 60.6325 23.1973 65.9981Z" fill="#C5221F"/>
</svg>
