<svg width="177" height="177" viewBox="0 0 177 177" fill="none" xmlns="http://www.w3.org/2000/svg">
<g clip-path="url(#clip0_36_204)">
<circle cx="88.2816" cy="88.2814" r="72.0816" transform="rotate(-15 88.2816 88.2814)" fill="#D9D9D9"/>
<path d="M18.6564 106.939C26.2958 135.449 50.0028 155.348 77.4209 159.543C75.9223 154.734 74.5194 148.854 74.3487 143.23C74.1729 137.219 73.1418 102.89 73.1418 102.89C73.1418 102.89 69.7263 99.0407 67.9658 92.4704C65.2011 82.1522 69.1164 72.8437 76.5641 70.8481C82.8973 69.1511 87.2316 73.0881 88.7579 78.7843C90.4638 85.1507 88.9549 95.7616 89.23 105.141C89.4646 112.994 96.5264 117.559 103.813 115.607C117.004 112.072 121.349 92.7478 115.97 72.6728C111.881 57.4128 98.543 48.745 79.8491 53.754C58.7286 59.4132 49.7914 78.6893 54.5056 96.2828C56.131 102.349 59.0657 106.147 62.7546 108.709C64.4504 109.886 64.7933 110.45 64.7953 112.322C64.8045 113.692 64.864 116.982 64.8738 118.289C64.8829 120.177 63.6229 121.19 61.8546 120.966C51.0625 119.601 43.6774 110.162 40.4686 98.1866C35.169 78.408 45.495 50.2223 78.5758 41.3583C105.159 34.2355 127.809 48.7836 133.342 69.4325C140.66 96.7458 130.943 121.22 108.56 127.217C101.043 129.231 92.8832 127.063 89.2243 123.096C89.2243 123.096 89.4807 140.222 89.4546 143.549C89.4167 149.313 87.9649 155.452 86.4435 160.342C93.3575 160.52 100.261 159.701 106.941 157.91C145.39 147.608 168.212 108.081 157.908 69.6262C147.604 31.1729 108.077 8.35295 69.6282 18.6552C31.1759 28.9585 8.35283 68.4852 18.6564 106.939Z" fill="#CB1F27"/>
</g>
<defs>
<clipPath id="clip0_36_204">
<rect width="144.163" height="144.163" fill="white" transform="translate(0 37.312) rotate(-15)"/>
</clipPath>
</defs>
</svg>
