<svg width="105" height="105" viewBox="0 0 105 105" fill="none" xmlns="http://www.w3.org/2000/svg">
<g clip-path="url(#clip0_36_212)">
<path d="M52.5 0C38.5793 0 25.2164 5.53465 15.3809 15.3768C5.53524 25.2228 0.00281735 38.5759 0 52.5C0 66.4182 5.53711 79.7811 15.3809 89.6232C25.2164 99.4653 38.5793 105 52.5 105C66.4207 105 79.7836 99.4653 89.6191 89.6232C99.4629 79.7811 105 66.4182 105 52.5C105 38.5818 99.4629 25.2189 89.6191 15.3768C79.7836 5.53465 66.4207 0 52.5 0Z" fill="url(#paint0_linear_36_212)"/>
<path d="M23.7644 51.9454C39.0715 45.2779 49.2762 40.8822 54.3785 38.7581C68.9637 32.6935 71.9906 31.6402 73.9676 31.6046C74.4023 31.5976 75.3703 31.705 76.0019 32.2157C76.5269 32.6464 76.6746 33.2288 76.7484 33.6377C76.814 34.0462 76.9043 34.9773 76.8305 35.7041C76.043 44.0056 72.6223 64.1509 70.8832 73.4491C70.1531 77.3833 68.7012 78.7024 67.2984 78.8312C64.2469 79.1117 61.9336 76.8165 58.9805 74.8814C54.3621 71.852 51.7535 69.9669 47.2664 67.0113C42.082 63.5955 45.4453 61.7178 48.3984 58.6499C49.1695 57.8468 62.6062 45.6282 62.8605 44.52C62.8933 44.3813 62.9262 43.8645 62.6144 43.5922C62.3109 43.319 61.8598 43.4125 61.5316 43.4864C61.064 43.5914 53.6894 48.4706 39.3832 58.1232C37.2914 59.562 35.3965 60.2634 33.6902 60.2265C31.8199 60.1863 28.2105 59.1666 25.5281 58.2955C22.2469 57.2266 19.6301 56.6614 19.8598 54.8461C19.9746 53.9011 21.2789 52.9339 23.7644 51.9454Z" fill="white"/>
</g>
<defs>
<linearGradient id="paint0_linear_36_212" x1="5250" y1="0" x2="5250" y2="10500" gradientUnits="userSpaceOnUse">
<stop stop-color="#2AABEE"/>
<stop offset="1" stop-color="#229ED9"/>
</linearGradient>
<clipPath id="clip0_36_212">
<rect width="105" height="105" fill="white"/>
</clipPath>
</defs>
</svg>
