<svg width="131" height="131" viewBox="0 0 131 131" fill="none" xmlns="http://www.w3.org/2000/svg">
<rect x="9.21094" y="27.8005" width="87" height="87" rx="43.5" transform="rotate(-11.1147 9.21094 27.8005)" fill="#D9D9D9"/>
<g clip-path="url(#clip0_36_211)">
<path d="M71.5425 15.2675L42.3135 20.5354C15.6405 25.3426 10.457 32.8053 15.2642 59.4783L20.5321 88.7073C25.3393 115.38 32.802 120.564 59.475 115.757L88.704 110.489C115.377 105.681 120.561 98.2187 115.753 71.5457L110.485 42.3167C105.678 15.6437 98.153 10.4715 71.5425 15.2675ZM98.4305 80.5542L91.5182 81.8C88.8997 82.2719 87.719 80.3403 82.1485 76.4164C77.3422 73.1873 75.4352 72.9873 74.4265 73.1691C73.0012 73.4259 72.6689 73.9006 73.0212 75.8555L74.1469 82.1012C74.4488 83.7765 74.1034 84.8772 69.6698 85.6762C62.338 86.9976 53.4037 84.0302 46.2108 76.7981C35.4269 66.2439 31.4392 57.6015 31.1013 55.7269C30.9195 54.7182 31.1512 53.7025 33.0883 53.3534L40.0154 52.1049C41.768 51.7891 42.5799 52.4753 43.5992 54.2271C48.8061 63.4977 56.0714 71.1315 58.4251 70.7073C59.2939 70.5507 59.6232 70.0766 59.2237 67.8598L57.3832 57.6477C56.2694 52.9851 53.7178 53.0271 53.4164 51.3548C53.2711 50.5485 53.7923 49.6219 54.8605 49.4294L65.7541 47.4661C67.227 47.2006 67.9139 47.9094 68.2265 49.6442L70.7095 63.4211C70.9777 64.9088 71.7391 65.3154 72.1408 65.243C73.0097 65.0864 73.6587 64.4257 74.9778 62.5228C78.9474 56.0469 80.9617 46.8021 80.9617 46.8021C81.2441 45.7097 81.8805 44.6211 83.6331 44.3052L90.5602 43.0568C92.6372 42.6824 93.2939 43.667 93.0979 45.2385C92.9551 49.424 86.6341 62.9166 86.6341 62.9166C86.1228 64.2561 85.938 64.8332 87.1897 65.9993C88.1154 66.8739 90.9115 68.5298 92.8592 70.1143C96.4259 72.943 99.2106 75.3536 100.169 77.1962C101.2 79.0105 100.376 80.2005 98.421 80.5528L98.4305 80.5542Z" fill="black"/>
</g>
<defs>
<clipPath id="clip0_36_211">
<rect width="96.7523" height="96.7523" fill="white" transform="translate(9.32031 26.4817) rotate(-10.2166)"/>
</clipPath>
</defs>
</svg>
